<svg xmlns="http://www.w3.org/2000/svg" viewBox="0 0 1207.2 807"><defs><style>.cls-1{fill:#f5a230;}.cls-2{fill:#7e563d;}.cls-3{fill:#f5e15d;}.cls-4{fill:#a3bd25;}.cls-5{fill:#f9422b;}.cls-6{fill:#fbc953;}</style></defs><title>Asset 13</title><g id="Layer_2" data-name="Layer 2"><g id="Layer_1-2" data-name="Layer 1"><rect class="cls-1" x="43.14" y="690" width="1129" height="117" rx="54"/><rect class="cls-2" x="0.14" y="591" width="1207" height="121" rx="60.5"/><path class="cls-3" d="M538.14,641l175,124s35,22,64,0L962.72,634.92l.42-68.92-437-16Z"/><path class="cls-1" d="M1129.08,507a23.84,23.84,0,0,0,23.73-26.37C1122,198.55,908.28,0,602.64,0,295.16,0,89.25,198.09,52.55,480a23.91,23.91,0,0,0,17.63,26.27h0a24,24,0,0,0,6,.77H1129.08Z"/><ellipse class="cls-4" cx="71.64" cy="595.5" rx="53.5" ry="45.5"/><ellipse class="cls-4" cx="223.64" cy="593" rx="54.5" ry="48"/><ellipse class="cls-4" cx="370.64" cy="589" rx="54.5" ry="48"/><ellipse class="cls-4" cx="526.64" cy="589" rx="54.5" ry="48"/><ellipse class="cls-4" cx="673.64" cy="589" rx="54.5" ry="48"/><ellipse class="cls-4" cx="824.64" cy="589" rx="54.5" ry="48"/><ellipse class="cls-4" cx="978.64" cy="589" rx="54.5" ry="48"/><ellipse class="cls-4" cx="1128.64" cy="589" rx="54.5" ry="48"/><path class="cls-4" d="M14.14,604l111-4.12s21-25.88,44,.12l107.56,4s20.88-28,42.16,0H422.14s33-26,53,0h103s21.2-27,45.6,0h101.4s29.44-22,47.72,0H876.42s25.76-30,49.74-2l104,2s27-32,47,0h128s12-39-22-32l-347,2-414.52-2-152.6.52L18.14,566s-20-3-18,19l2,19Z"/><rect class="cls-5" x="18.14" y="500" width="1172" height="72" rx="12"/><circle class="cls-6" cx="261.14" cy="190" r="27"/><circle class="cls-6" cx="478.14" cy="125" r="27"/><circle class="cls-6" cx="580.14" cy="179" r="27"/><circle class="cls-6" cx="681.14" cy="77" r="27"/><circle class="cls-6" cx="902.14" cy="233" r="27"/><circle class="cls-6" cx="844.14" cy="152" r="27"/><circle class="cls-6" cx="1017.14" cy="390" r="27"/><circle class="cls-6" cx="745.14" cy="287" r="27"/><circle class="cls-6" cx="817.14" cy="417" r="27"/><circle class="cls-6" cx="607.14" cy="390" r="27"/><circle class="cls-6" cx="478.14" cy="319" r="27"/><circle class="cls-6" cx="371.14" cy="390" r="27"/><circle class="cls-6" cx="191.14" cy="373" r="27"/></g></g></svg>