<svg xmlns="http://www.w3.org/2000/svg" viewBox="0 0 1521.11 999"><defs><style>.cls-1{fill:none;stroke:#48515a;stroke-miterlimit:10;stroke-width:41px;}.cls-2{fill:#48515a;}</style></defs><title>Asset 4</title><g id="Layer_2" data-name="Layer 2"><g id="Layer_1-2" data-name="Layer 1"><path class="cls-1" d="M390.51,63.5,258,503s-239.5-2.5-237.5,189.5h357l136,132h987s13-266-257-361l-344-19-56,265-248,2-145-125,37-460,149,2s77-63,6-108h-240Z"/><line class="cls-1" x1="487.01" y1="126" x2="390.01" y2="126"/><path class="cls-2" d="M68.62,705C7.75,770,22,824,22,824c0,96.65,79.48,175,177.53,175S377,920.65,377,824c0,0,2.4-82-45.3-131.5"/><path class="cls-2" d="M974,824c0,96.65,79.48,175,177.53,175S1329,920.65,1329,824"/><path class="cls-2" d="M226,62V258s126.82,5,135.41-98S250,56,226,62Z"/><path class="cls-1" d="M806.21,267.62s-51.1,27.18-35.65,103.52S824,437,824,437h440.88s-4.59-156.62-186.41-179.63S806.21,267.62,806.21,267.62Z"/></g></g></svg>