<svg xmlns="http://www.w3.org/2000/svg" viewBox="0 0 1566.51 1710.02"><defs><style>.cls-1{fill:none;stroke:#48515a;stroke-miterlimit:10;stroke-width:41px;}</style></defs><title>Asset 4</title><g id="Layer_2" data-name="Layer 2"><g id="Layer_1-2" data-name="Layer 1"><polygon class="cls-1" points="21.01 20.5 717.01 20.5 785.01 85.5 859.01 20.5 1546.01 20.5 1545.51 1533 20.51 1533 21.01 20.5"/><polyline class="cls-1" points="153.33 1533 153.51 1684 780.01 1533 1419.51 1684 1419.51 1533"/><line class="cls-1" x1="901.01" y1="340" x2="1208.01" y2="340"/><line class="cls-1" x1="901.01" y1="186.53" x2="1086.01" y2="186.53"/><line class="cls-1" x1="901.01" y1="907" x2="1086.01" y2="907"/><line class="cls-1" x1="901.01" y1="448" x2="1208.01" y2="448"/><line class="cls-1" x1="901.01" y1="565" x2="1208.01" y2="565"/><line class="cls-1" x1="901.01" y1="669" x2="1208.01" y2="669"/><line class="cls-1" x1="901.01" y1="1066" x2="1208.01" y2="1066"/><line class="cls-1" x1="901.01" y1="1170" x2="1208.01" y2="1170"/><line class="cls-1" x1="901.01" y1="1274" x2="1208.01" y2="1274"/><line class="cls-1" x1="901.01" y1="1386" x2="1208.01" y2="1386"/><line class="cls-1" x1="786.51" y1="85" x2="779.51" y2="1533"/><line class="cls-1" x1="1345.51" y1="340" x2="1419.51" y2="340"/><line class="cls-1" x1="1346.01" y1="448" x2="1420.01" y2="448"/><line class="cls-1" x1="1346.01" y1="565" x2="1420.01" y2="565"/><line class="cls-1" x1="1346.01" y1="669" x2="1420.01" y2="669"/><line class="cls-1" x1="1346.01" y1="1066" x2="1420.01" y2="1066"/><line class="cls-1" x1="1346.01" y1="1170" x2="1420.01" y2="1170"/><line class="cls-1" x1="1346.01" y1="1274" x2="1420.01" y2="1274"/><line class="cls-1" x1="1346.01" y1="1386" x2="1420.01" y2="1386"/><path class="cls-1" d="M661.51,856.5c0-129.51-113.72-234.5-254-234.5s-254,105-254,234.5V883h508Z"/><path class="cls-1" d="M422.51,702s156,26,160,167"/><line class="cls-1" x1="407.51" y1="615" x2="407.51" y2="576"/><line class="cls-1" x1="375.51" y1="565" x2="436.51" y2="565"/></g></g></svg>