<svg xmlns="http://www.w3.org/2000/svg" viewBox="0 0 1521.01 977.73"><defs><style>.cls-1{fill:#5c1d1e;}.cls-2{fill:#682421;}.cls-3{fill:#823732;}.cls-4{fill:#eed8ae;}.cls-5{fill:#c3392a;}.cls-6{fill:#73ae43;}.cls-7{fill:#58843c;}.cls-8{fill:#ffb654;}</style></defs><title>Asset 16</title><g id="Layer_2" data-name="Layer 2"><g id="Layer_1-2" data-name="Layer 1"><path class="cls-1" d="M788,827.59V147.16a.2.2,0,0,1,.17-.2c6.29-.86,210.6-44.42,480.72,78.37h0s148.58,72.94,129.67,318.78v0l1.67,282.11a.2.2,0,0,1-.2.2l-611.83,1.35A.2.2,0,0,1,788,827.59Z"/><path class="cls-2" d="M794.27,146.3S413.35,178.05,264.76,434.7c0,0-65.95,76.87-78.35,226.94l0,164.78,607.84,0Z"/><path class="cls-3" d="M269.43,179.26A64.71,64.71,0,0,0,236,209.68c-16.5,32.51-26.43,100.42,63.89,214.22C435,594.1,491.7,602.21,491.7,602.21s185.52,24.6,233-212.61a64.51,64.51,0,0,0-20-60.47c-30.84-27.9-84.43-72.24-134-92.8a75.31,75.31,0,0,1-13.73-7.9C483.22,177.69,405.67,123.71,269.43,179.26Z"/><ellipse class="cls-4" cx="67.54" cy="134.6" rx="67.54" ry="64.01"/><ellipse class="cls-4" cx="124.62" cy="67.57" rx="67.54" ry="67.57"/><path class="cls-4" d="M124.57,150.43l102.69,84.94s1.74-43.81,45.28-57.32L145.89,94.3Z"/><ellipse class="cls-5" cx="334.14" cy="787.08" rx="167.5" ry="108.06"/><ellipse class="cls-5" cx="1274.41" cy="788.05" rx="167.5" ry="108.06"/><circle class="cls-6" cx="896.94" cy="808.75" r="40.52"/><circle class="cls-7" cx="952.46" cy="808.75" r="40.52"/><circle class="cls-6" cx="1054.68" cy="808.53" r="40.52"/><rect class="cls-8" x="72.94" y="826.44" width="1448.07" height="151.29" rx="75.65"/></g></g></svg>