<svg xmlns="http://www.w3.org/2000/svg" viewBox="0 0 1303.24 1322.11"><defs><style>.cls-1{fill:#ffb654;}.cls-2{fill:#ffcb1b;}.cls-3{fill:#b92821;}.cls-4{fill:#e8d4d4;}</style></defs><title>Asset 15</title><g id="Layer_2" data-name="Layer 2"><g id="Layer_1-2" data-name="Layer 1"><path class="cls-1" d="M731,1249,585.72,628l640.1,201.85s116.54-260-69.6-545.66c0,0-167.29-306.83-570.5-282.8,0,0-350.48,12-528.16,367.33,0,0-149,291.06,32.43,581.39C90,950.06,289.81,1315.89,731,1249Z"/><path class="cls-2" d="M713.3,1178.37,584.58,628,1151.85,806.9s103.27-230.38-61.69-483.57c0,0-148.25-271.92-505.58-250.62,0,0-310.6,10.61-468.06,325.54,0,0-132,257.93,28.74,515.23C145.26,913.48,322.33,1237.68,713.3,1178.37Z"/><path class="cls-1" d="M660.18,701.89l147.35,620.22s369.09-26,495.71-418.47Z"/><path class="cls-2" d="M660.25,702.48l130.22,549.59s272.09-3.12,438.23-371.78Z"/><circle class="cls-3" cx="526.45" cy="979.07" r="72.74"/><circle class="cls-3" cx="543.51" cy="513" r="72.74"/><circle class="cls-3" cx="204.06" cy="731.22" r="72.74"/><circle class="cls-3" cx="327.09" cy="374.71" r="72.74"/><circle class="cls-3" cx="703.36" cy="272.33" r="72.74"/><circle class="cls-3" cx="962.89" cy="585.74" r="72.74"/><circle class="cls-3" cx="1054.48" cy="939.56" r="72.74"/><circle class="cls-3" cx="890.15" cy="1051.81" r="72.74"/><path class="cls-4" d="M327.09,839l-31.43,30.53,35.92,37.72,38.62-34.12s87.1,49.39,59.26-51.19c0,0-38.61-77.23-111.35-32.33C318.11,789.59,274.11,817.43,327.09,839Z"/><path class="cls-4" d="M490.59,708.84l43.73,2.88,3.94-51.93L487.05,654s-21.68-97.76-77.71-9.71c0,0-31.47,80.4,50.6,104.33C459.94,748.6,510.08,762.62,490.59,708.84Z"/><path class="cls-4" d="M202.63,581.71l-2.47,43.75,52,3.45,5.33-51.25s97.55-22.59,9-77.8c0,0-80.69-30.72-103.86,51.56C162.59,551.42,149,601.7,202.63,581.71Z"/><path class="cls-4" d="M701.93,514.36l-2.48,43.75,52,3.45,5.34-51.25s97.55-22.6,9-77.8c0,0-80.7-30.72-103.86,51.56C661.89,484.07,648.34,534.35,701.93,514.36Z"/><path class="cls-4" d="M476.53,322.18l-2.48,43.75,52,3.46,5.34-51.26s97.55-22.59,9-77.8c0,0-80.7-30.72-103.86,51.57C436.49,291.9,422.94,342.17,476.53,322.18Z"/><path class="cls-4" d="M888.15,346.35l-43.39,6.12,6.77,51.65,51.31-4.79s41.22,91.25,78-6.39c0,0,14.35-85.15-70.87-91.78C910,301.16,858.06,297.7,888.15,346.35Z"/><path class="cls-4" d="M811.65,861.54l-34.73,26.71,31.34,41.6,42.28-29.45s80.85,59.09,64.77-44c0,0-29.47-81.16-106.89-44.93C808.42,811.44,761.5,834,811.65,861.54Z"/></g></g></svg>