<svg xmlns="http://www.w3.org/2000/svg" viewBox="0 0 1563.71 1531.96"><defs><style>.cls-1,.cls-2,.cls-4{fill:none;stroke:#48515a;stroke-width:41px;}.cls-1,.cls-2{stroke-miterlimit:10;}.cls-2,.cls-4{stroke-linecap:round;}.cls-3{fill:#48515a;}.cls-4{stroke-linejoin:round;}</style></defs><title>Asset 10</title><g id="Layer_2" data-name="Layer 2"><g id="Layer_1-2" data-name="Layer 1"><path class="cls-1" d="M1182.6,557h105.2a81,81,0,0,0,81-81h0a81,81,0,0,0-81-81l-386.5.5c-5.59,0,55.45.07,50.17,1.15"/><path class="cls-2" d="M1182.6,557.51H1293a81,81,0,0,1,81,81h0a81,81,0,0,1-81,81H1187.8"/><path class="cls-1" d="M1177.8,719.51H1265a81,81,0,0,1,81,81h0a81,81,0,0,1-81,81H1159.8"/><path class="cls-2" d="M897.3,394.51c98-173,25-317,25-317-23-99-96-39-96-39,2,380-298,438-298,438v523l71,33,530.5,11H1235a81,81,0,0,0,81-81h0a81,81,0,0,0-81-81h-63.2"/><rect class="cls-3" x="209.3" y="438.51" width="319" height="605.5" rx="62.86"/><polygon class="cls-4" points="351.05 1507.46 224.79 1415.64 98.45 1507.35 146.76 1358.89 20.5 1267.08 176.61 1267.15 224.92 1118.69 273.1 1267.19 429.21 1267.26 302.87 1358.96 351.05 1507.46"/><polygon class="cls-4" points="891.05 1511.46 764.79 1419.64 638.45 1511.35 686.76 1362.89 560.5 1271.08 716.61 1271.15 764.92 1122.69 813.1 1271.19 969.21 1271.26 842.87 1362.96 891.05 1511.46"/><polygon class="cls-4" points="1465.05 1493.46 1338.79 1401.64 1212.45 1493.35 1260.76 1344.89 1134.5 1253.08 1290.61 1253.15 1338.92 1104.69 1387.1 1253.19 1543.21 1253.26 1416.87 1344.96 1465.05 1493.46"/></g></g></svg>