<svg xmlns="http://www.w3.org/2000/svg" viewBox="0 0 1358 1068.42"><defs><style>.cls-1{fill:#f4af30;}.cls-2{fill:#32ce75;}.cls-3{fill:#36d176;}.cls-4{fill:#fffeff;}.cls-5{fill:#ba3619;}</style></defs><title>Asset 17</title><g id="Layer_2" data-name="Layer 2"><g id="Layer_1-2" data-name="Layer 1"><path class="cls-1" d="M1358,377.44c0,381.62-304,691-679,691S0,759.06,0,377.44"/><path class="cls-2" d="M161.16,342s-97.25-77.7-83.94-224.15c0,0,231.66,37.28,223.67,111.83C300.89,229.65,343.62,377.07,161.16,342Z"/><path class="cls-3" d="M378.11,232.32s-119.82,0-71.89-231.66c0,0,109.17-21.3,162.42,178.4v74.56Z"/><path class="cls-4" d="M138.46,378.77H1240.84s-61.24-93.2-111.84-85.21c0,0-14.64-131.81-241-137.13,0,0-199.71-274.26-404.74,0,0,0-223.67-8-239.65,122.49,0,0-103.85,63.9-103.85,98.52"/><circle class="cls-5" cx="672.34" cy="185.72" r="22.63"/><circle class="cls-3" cx="608.44" cy="289.57" r="22.63"/><circle class="cls-3" cx="938.62" cy="289.57" r="22.63"/><circle class="cls-3" cx="406.07" cy="324.18" r="22.63"/><circle class="cls-5" cx="384.77" cy="246.96" r="22.63"/><circle class="cls-5" cx="834.77" cy="289.57" r="22.63"/></g></g></svg>