<svg xmlns="http://www.w3.org/2000/svg" viewBox="0 0 1093.82 1201.15"><defs><style>.cls-1{fill:#fff;}.cls-2{fill:#efc84a;}.cls-3{fill:#f2d379;}.cls-4{fill:#f4f4f4;}</style></defs><title>Asset 14</title><g id="Layer_2" data-name="Layer 2"><g id="Layer_1-2" data-name="Layer 1"><path class="cls-1" d="M76.71,199.65s-69-1-76,67c0,0-10.5,56.5,49.5,71.5l1,675,1,98s-1,68,85,90h529s99.71,0,105.77-91.44c.1-1.5.18-3,.23-4.56,3-96,0-110,0-110l1-684s54-20,13-102c0,0-20-39-70-23,0,0-2-27-69-34,0,0-16-66-114-51,0,0-37-64-137-54,0,0-24-59-97-45,0,0-73,15-73,81,0,0-60-7-79,42C147.21,125.15,82.21,162.15,76.71,199.65Z"/><path class="cls-2" d="M110.71,350.65s40,48,106,33c0,0-4,15,26,40l-1,379s55,45,100.5-4.5v-305h9v198s27.5,26.5,53-3v-213s39-12,39-67c0,0,74,46,129-24v285s31.5,29.5,60-1v-297s56,10,86-33l-4,725-1,60h-603Z"/><circle class="cls-3" cx="448.71" cy="465.65" r="22"/><circle class="cls-3" cx="504.71" cy="582.65" r="22"/><circle class="cls-3" cx="470.71" cy="666.65" r="22"/><circle class="cls-3" cx="548.71" cy="644.65" r="22"/><path class="cls-3" d="M573.71,498.65a22,22,0,0,1,0-44"/><path class="cls-3" d="M341.71,720.65a22,22,0,0,1,0,44"/><circle class="cls-3" cx="482.71" cy="742.65" r="22"/><circle class="cls-3" cx="396.71" cy="786.65" r="22"/><circle class="cls-3" cx="418.71" cy="870.65" r="22"/><circle class="cls-3" cx="504.71" cy="919.65" r="22"/><rect class="cls-3" x="139.71" y="498.65" width="23" height="324" rx="11.5"/><path class="cls-4" d="M772.71,367.65h209s105-14,111,98c0,0,26,140-173,417,0,0-71.5,93.5-146.5,109.5v-121s40,22,123-107c0,0,131-197,58-256,0,0-7-19-58-21h-123Z"/></g></g></svg>